<svg width="36" height="36" viewBox="0 0 36 36" fill="none" xmlns="http://www.w3.org/2000/svg">
<g clip-path="url(#clip0_1_111)">
<path d="M17.9 3.22C22.68 3.22 23.24 3.24 25.13 3.32C27.08 3.41 29.09 3.85 30.51 5.28C31.94 6.71 32.38 8.7 32.47 10.66C32.56 12.55 32.57 13.11 32.57 17.89C32.57 22.67 32.55 23.23 32.47 25.12C32.38 27.06 31.93 29.09 30.51 30.5C29.09 31.91 27.09 32.37 25.13 32.46C23.24 32.55 22.68 32.56 17.9 32.56C13.12 32.56 12.56 32.54 10.67 32.46C8.74 32.37 6.69 31.91 5.29 30.5C3.86 29.07 3.42 27.06 3.33 25.12C3.24 23.23 3.23 22.67 3.23 17.89C3.23 13.11 3.25 12.55 3.33 10.66C3.42 8.73 3.88 6.69 5.29 5.28C6.72 3.85 8.72 3.41 10.67 3.32C12.56 3.23 13.12 3.22 17.9 3.22ZM17.9 0C13.04 0 12.43 0.02 10.52 0.11C7.75 0.24 5.01 1.01 3.01 3.01C1 5.01 0.23 7.75 0.11 10.52C0.02 12.43 0 13.04 0 17.9C0 22.76 0.02 23.37 0.11 25.28C0.24 28.04 1.01 30.8 3.01 32.79C5.02 34.8 7.76 35.56 10.52 35.69C12.43 35.78 13.04 35.8 17.9 35.8C22.76 35.8 23.37 35.78 25.28 35.69C28.04 35.56 30.79 34.79 32.79 32.79C34.79 30.79 35.56 28.04 35.69 25.28C35.78 23.37 35.8 22.76 35.8 17.9C35.8 13.04 35.78 12.43 35.69 10.52C35.56 7.75 34.79 5.01 32.79 3.01C30.79 1 28.03 0.23 25.27 0.11C23.36 0.02 22.75 0 17.89 0H17.9Z" fill="#85CABF"/>
<path d="M17.9 8.70999C12.83 8.70999 8.71 12.82 8.71 17.9C8.71 22.98 12.82 27.09 17.9 27.09C22.98 27.09 27.09 22.98 27.09 17.9C27.09 12.82 22.98 8.70999 17.9 8.70999ZM17.9 23.86C14.61 23.86 11.93 21.19 11.93 17.89C11.93 14.59 14.6 11.92 17.9 11.92C21.2 11.92 23.87 14.59 23.87 17.89C23.87 21.19 21.2 23.86 17.9 23.86Z" fill="#85CABF"/>
<path d="M27.45 10.49C28.6374 10.49 29.6 9.52741 29.6 8.34C29.6 7.15259 28.6374 6.19 27.45 6.19C26.2626 6.19 25.3 7.15259 25.3 8.34C25.3 9.52741 26.2626 10.49 27.45 10.49Z" fill="#85CABF"/>
</g>
<defs>
<clipPath id="clip0_1_111">
<rect width="35.79" height="35.79" fill="white"/>
</clipPath>
</defs>
</svg>
