<svg width="32" height="36" viewBox="0 0 32 36" fill="none" xmlns="http://www.w3.org/2000/svg">
<path d="M31.21 14.71C28.02 14.71 25.06 13.69 22.65 11.96V24.46C22.65 30.71 17.57 35.79 11.32 35.79C8.91 35.79 6.67 35.03 4.83 33.74C1.91 31.69 0 28.3 0 24.47C0 18.22 5.08 13.14 11.33 13.14C11.85 13.14 12.36 13.18 12.86 13.25V19.53C12.38 19.38 11.87 19.29 11.33 19.29C8.48 19.29 6.16 21.61 6.16 24.46C6.16 26.45 7.29 28.17 8.93 29.04C9.65 29.42 10.46 29.63 11.33 29.63C14.12 29.63 16.39 27.41 16.49 24.65V0H22.65C22.65 0.53 22.7 1.05 22.79 1.56C23.22 3.9 24.62 5.92 26.54 7.17C27.88 8.05 29.48 8.56 31.2 8.56V14.71H31.21Z" fill="#85CABF"/>
</svg>
